# Rhino

o Speaker
v -6.321371078491211 6.5 12.75
v -6.321371078491211 -6.5 12.75
v 1.1786288022995 5.75 11.375
v 1.1786288022995 -5.75 11.375
v 8.678628921508789 5 10
v 8.678628921508789 -5 10
v -6.321371078491211 6.5 -12.75
v -6.937466144561768 6.561609268188477 -9.614407539367676
v -7.381644725799561 6.606027126312256 -6.434554100036621
v -7.649815559387207 6.6328444480896 -3.224808216094971
v -7.739484786987305 6.641811370849609 1.169058610767798e-14
v -7.649815559387207 6.6328444480896 3.224808216094971
v -7.381644725799561 6.606027126312256 6.434554100036621
v -6.937466144561768 6.561609268188477 9.614407539367676
v -6.321371078491211 6.5 12.75
v 8.678628921508789 5 -10
v 8.678628921508789 5 -7.5
v 8.678628921508789 5 -5
v 8.678628921508789 5 -2.5
v 8.678628921508789 5 6.217248937900877e-15
v 8.678628921508789 5 2.5
v 8.678628921508789 5 5
v 8.678628921508789 5 7.5
v 8.678628921508789 5 10
v -6.321371078491211 -6.5 -12.75
v -6.321371078491211 6.5 -12.75
v 8.678628921508789 -5 -10
v 8.678628921508789 5 -10
v -6.321371078491211 -6.5 12.75
v -6.937466144561768 -6.561609268188477 9.614407539367676
v -7.381644725799561 -6.606027126312256 6.434554100036621
v -7.649815559387207 -6.6328444480896 3.224808216094971
v -7.739484786987305 -6.641811370849609 1.079131070933588e-14
v -7.649815559387207 -6.6328444480896 -3.224808216094971
v -7.381644725799561 -6.606027126312256 -6.434554100036621
v -6.937466144561768 -6.561609268188477 -9.614407539367676
v -6.321371078491211 -6.5 -12.75
v 1.149578809738159 -5.752904891967773 11.38032627105713
v 0.8614727854728699 -5.781715393066406 8.558437347412109
v 0.6547223329544067 -5.802390575408936 5.716720581054688
v 0.530285656452179 -5.814834117889404 2.861699342727661
v 0.4887421131134033 -5.818988800048828 9.160570692029902e-15
v 0.530285656452179 -5.814834117889404 -2.861699342727661
v 0.6547223329544067 -5.802390575408936 -5.716720581054688
v 0.8614727854728699 -5.781715393066406 -8.558437347412109
v 1.149578809738159 -5.752904891967773 -11.38032627105713
v 8.678628921508789 -5 10
v 8.678628921508789 -5 7.5
v 8.678628921508789 -5 5
v 8.678628921508789 -5 2.5
v 8.678628921508789 -5 8.881784197001252e-15
v 8.678628921508789 -5 -2.5
v 8.678628921508789 -5 -5
v 8.678628921508789 -5 -7.5
v 8.678628921508789 -5 -10
v 8.678628921508789 -5 10
v 8.678628921508789 -5 -10
v 8.678628921508789 5 -10
v 8.678628921508789 5 10
v -6.321371078491211 -6.5 12.75
v -6.937466144561768 -6.561609268188477 9.614407539367676
v -7.381644725799561 -6.606027126312256 6.434554100036621
v -7.649815559387207 -6.6328444480896 3.224808216094971
v -7.739484786987305 -6.641811370849609 7.643844697556145e-15
v -7.649815559387207 -6.6328444480896 -3.224808216094971
v -7.381644725799561 -6.606027126312256 -6.434554100036621
v -6.937466144561768 -6.561609268188477 -9.614407539367676
v -6.321371078491211 -6.5 -12.75
v -6.321371078491211 6.5 12.75
v -6.937466144561768 6.561609268188477 9.614407539367676
v -7.381644725799561 6.606027126312256 6.434554100036621
v -7.649815559387207 6.6328444480896 3.224808216094971
v -7.739484786987305 6.641811370849609 9.4423963412733e-15
v -7.649815559387207 6.6328444480896 -3.224808216094971
v -7.381644725799561 6.606027126312256 -6.434554100036621
v -6.937466144561768 6.561609268188477 -9.614407539367676
v -6.321371078491211 6.5 -12.75
vn 0.1803278625011444 0 0.9836065769195557
vn 0.1803278625011444 0 0.9836065769195557
vn 0.1803278625011444 -2.263177405601414e-17 0.9836065769195557
vn 0.1803278625011444 2.278608095969122e-16 0.9836065769195557
vn 0.1803278625011444 0 0.9836065769195557
vn 0.1803278625011444 1.52373561562876e-15 0.9836065769195557
vn 0.09950371831655502 0.9950371980667114 2.052043855586439e-17
vn 0.09950371831655502 0.9950371980667114 6.087267788147544e-17
vn 0.09950371831655502 0.9950371980667114 2.855407291326105e-17
vn 0.09950371831655502 0.9950371980667114 5.79316603746003e-17
vn 0.09950371831655502 0.9950371980667114 6.404880658821775e-17
vn 0.09950371831655502 0.9950371980667114 2.429392235940677e-17
vn 0.09950371831655502 0.9950371980667114 9.327663796273794e-17
vn 0.09950371831655502 0.9950371980667114 6.087267788147544e-17
vn 0.09950371831655502 0.9950371980667114 4.104087711172879e-17
vn 0.09950371831655502 0.9950371980667114 -3.550531827807492e-16
vn 0.09950371831655502 0.9950371980667114 -3.006063813872756e-16
vn 0.09950371831655502 0.9950371980667114 -2.130319096684495e-16
vn 0.09950371831655502 0.9950371980667114 -7.101063655614985e-17
vn 0.09950371831655502 0.9950371980667114 0
vn 0.09950371831655502 0.9950371980667114 3.550531827807492e-17
vn 0.09950371831655502 0.9950371980667114 1.420212731122997e-16
vn 0.09950371831655502 0.9950371980667114 1.940745049806204e-16
vn 0.09950371831655502 0.9950371980667114 3.550531827807492e-16
vn 0.1803278625011444 0 -0.9836065769195557
vn 0.1803278625011444 0 -0.9836065769195557
vn 0.1803278625011444 0 -0.9836065769195557
vn 0.1803278625011444 0 -0.9836065769195557
vn 0.09950371831655502 -0.9950371980667114 7.387358144808978e-17
vn 0.09950371831655502 -0.9950371980667114 1.570907833373417e-16
vn 0.09950371831655502 -0.9950371980667114 8.946942338817687e-17
vn 0.09950371831655502 -0.9950371980667114 8.40943442108032e-17
vn 0.09950371831655502 -0.9950371980667114 8.354192652796068e-17
vn 0.09950371831655502 -0.9950371980667114 1.551073498122274e-16
vn 0.09950371831655502 -0.9950371980667114 5.13973305821254e-17
vn 0.09950371831655502 -0.9950371980667114 1.374544304570904e-17
vn 0.09950371831655502 -0.9950371980667114 7.387358144808978e-17
vn 0.09950371831655502 -0.9950371980667114 \
 -3.008947233139218e-17
vn 0.09950371831655502 -0.9950371980667114 1.335626945675386e-17
vn 0.09950371831655502 -0.9950371980667114 1.083046290977038e-18
vn 0.09950371831655502 -0.9950371980667114 1.9182166203872e-17
vn 0.09950371831655502 -0.9950371980667114 6.16177426202591e-17
vn 0.09950371831655502 -0.9950371980667114 1.102974540179028e-16
vn 0.09950371831655502 -0.9950371980667114 1.48377342174047e-16
vn 0.09950371831655502 -0.9950371980667114 1.268845561168489e-16
vn 0.09950371831655502 -0.9950371980667114 1.735931027322237e-16
vn 0.09950371831655502 -0.9950371980667114 \
 -1.704255303817376e-16
vn 0.09950371831655502 -0.9950371980667114 \
 -2.035691355144103e-16
vn 0.09950371831655502 -0.9950371980667114 \
 -1.455717969991733e-16
vn 0.09950371831655502 -0.9950371980667114 -4.26063825954344e-17
vn 0.09950371831655502 -0.9950371980667114 0
vn 0.09950371831655502 -0.9950371980667114 4.970744360407142e-17
vn 0.09950371831655502 -0.9950371980667114 8.521276519086879e-17
vn 0.09950371831655502 -0.9950371980667114 1.562233951295737e-16
vn 0.09950371831655502 -0.9950371980667114 1.704255303817376e-16
vn 1 3.55271373174006e-16 0
vn 1 3.55271373174006e-16 0
vn 1 3.55271373174006e-16 0
vn 1 3.55271373174006e-16 0
vn -0.9755545854568481 0 0.2197571247816086
vn -0.9861770272254944 -3.116513733821165e-16 0.1656952500343323
vn -0.9938332438468933 -6.264477668624984e-17 0.1108850687742233
vn -0.9984548091888428 -4.579702799105477e-16 \
 0.05556976422667503
vn -1 3.740681129170977e-18 1.959033814626405e-16
vn -0.9984548091888428 -1.457338052852255e-16 \
 -0.05556976422667503
vn -0.9938332438468933 1.749315339028937e-16 -0.1108850687742233
vn -0.9861770272254944 6.832008933875576e-16 -0.1656952500343323
vn -0.9755545854568481 9.047525251372869e-16 -0.2197571247816086
vn -0.9755545854568481 0 0.2197571247816086
vn -0.9861770272254944 -5.358231427354994e-16 0.1656952500343323
vn -0.9938332438468933 -8.9564713271254e-16 0.1108850687742233
vn -0.9984548091888428 -8.423742131048425e-16 \
 0.05556976422667503
vn -1 -9.726569330571777e-16 -1.399309943218231e-16
vn -0.9984548091888428 -7.497633364212015e-16 \
 -0.05556976422667503
vn -0.9938332438468933 -2.907785492678596e-16 \
 -0.1108850687742233
vn -0.9861770272254944 -1.512070410228072e-16 \
 -0.1656952500343323
vn -0.9755545854568481 4.523762625686435e-16 -0.2197571247816086
f 4//4 3//3 1//1 2//2
f 6//6 5//5 3//3 4//4
f 17//17 16//16 7//7 8//8
f 18//18 17//17 8//8 9//9
f 19//19 18//18 9//9 10//10
f 20//20 19//19 10//10 11//11
f 21//21 20//20 11//11 12//12
f 22//22 21//21 12//12 13//13
f 23//23 22//22 13//13 14//14
f 24//24 23//23 14//14 15//15
f 28//28 27//27 25//25 26//26
f 39//39 38//38 29//29 30//30
f 40//40 39//39 30//30 31//31
f 41//41 40//40 31//31 32//32
f 42//42 41//41 32//32 33//33
f 43//43 42//42 33//33 34//34
f 44//44 43//43 34//34 35//35
f 45//45 44//44 35//35 36//36
f 46//46 45//45 36//36 37//37
f 48//48 47//47 38//38 39//39
f 49//49 48//48 39//39 40//40
f 50//50 49//49 40//40 41//41
f 51//51 50//50 41//41 42//42
f 52//52 51//51 42//42 43//43
f 53//53 52//52 43//43 44//44
f 54//54 53//53 44//44 45//45
f 55//55 54//54 45//45 46//46
f 57//57 58//58 59//59
f 59//59 56//56 57//57
f 70//70 61//61 60//60 69//69
f 71//71 62//62 61//61 70//70
f 72//72 63//63 62//62 71//71
f 73//73 64//64 63//63 72//72
f 74//74 65//65 64//64 73//73
f 75//75 66//66 65//65 74//74
f 76//76 67//67 66//66 75//75
f 77//77 68//68 67//67 76//76
