ply
format ascii 1.0
element vertex 150
property float x
property float y
property float z
end_header
-28.6268 15.3704 0.0
-32.8122 25.8219 0.0
-21.6683 24.2208 0.0
-25.1742 37.4 0.0
-15.5438 43.2314 0.0
-25.4091 48.6559 0.0
-8.4819 50.4745 0.0
2.7762 50.5512 0.0
-2.9193 60.2627 0.0
-2.876 68.5508 0.0
3.1272 78.075 0.0
8.3738 68.1139 0.0
7.3862 49.393 0.0
18.1364 46.049 0.0
15.6573 57.031 0.0
26.0559 64.0624 0.0
19.4069 81.3267 0.0
27.8599 88.7629 0.0
30.0734 77.7243 0.0
53.0358 91.0022 0.0
53.1965 79.745 0.0
43.3671 85.2344 0.0
35.6606 69.9361 0.0
39.3432 42.6661 0.0
30.6223 49.7861 0.0
41.1489 53.7786 0.0
35.945 58.6814 0.0
43.375 65.5017 0.0
53.125 71.1309 0.0
53.125 59.8725 0.0
73.522 70.1962 0.0
69.1396 59.8259 0.0
62.3498 68.8064 0.0
66.7704 74.2544 0.0
61.7035 84.3081 0.0
72.9437 83.6694 0.0
89.4388 87.0 0.0
78.5121 84.2878 0.0
86.3243 76.1811 0.0
79.7233 67.0298 0.0
90.9375 68.0261 0.0
86.1932 57.8162 0.0
86.503 51.4453 0.0
75.245 51.5217 0.0
54.4532 39.6479 0.0
60.5531 30.1852 0.0
65.6981 40.1992 0.0
80.8078 41.7337 0.0
79.9375 33.9052 0.0
90.9375 31.5071 0.0
83.3607 23.1799 0.0
72.625 19.9414 0.0
83.2021 16.0847 0.0
74.5736 8.853 0.0
77.6045 -1.7381 0.0
86.9112 -8.0733 0.0
76.7714 -12.9655 0.0
82.2407 -22.2077 0.0
89.5708 -30.7528 0.0
78.5055 -32.8284 0.0
78.2116 -36.9374 0.0
72.625 -46.7119 0.0
83.8832 -46.6628 0.0
85.6361 -52.0092 0.0
90.4688 -62.1775 0.0
79.2464 -61.2786 0.0
61.6466 -66.8798 0.0
69.375 -58.6931 0.0
72.6007 -69.4794 0.0
81.0961 -74.4429 0.0
83.943 -85.3353 0.0
73.0864 -82.3546 0.0
59.8486 -90.9375 0.0
59.3849 -79.6887 0.0
49.875 -85.7146 0.0
25.231 -7.5074 0.0
30.9171 -17.2242 0.0
19.659 -17.2902 0.0
28.2549 -24.1725 0.0
30.4654 -35.2117 0.0
19.7999 -31.6064 0.0
3.8999 -28.1536 0.0
14.3746 -24.0269 0.0
12.7112 -35.1616 0.0
15.127 -46.0786 0.0
11.8503 -56.8496 0.0
4.1608 -48.6264 0.0
-14.5876 -38.2859 0.0
-3.4535 -39.9537 0.0
-10.465 -48.7622 0.0
-10.7064 -72.1128 0.0
-18.1485 -80.5606 0.0
-21.7435 -69.8916 0.0
-18.6887 -53.9909 0.0
-27.5569 -60.9266 0.0
-29.1293 -49.7786 0.0
-27.0163 -41.3072 0.0
-37.3984 -45.6618 0.0
-35.9786 -34.4933 0.0
-50.4667 -26.6513 0.0
-44.1642 -35.9802 0.0
-55.3946 -36.7738 0.0
-51.8445 -44.4287 0.0
-54.2548 -55.4261 0.0
-43.5257 -52.0147 0.0
-42.8993 -64.4303 0.0
-32.9285 -69.6583 0.0
-42.4415 -75.6793 0.0
-40.4175 -79.7973 0.0
-29.9566 -83.9587 0.0
-38.791 -90.9375 0.0
-55.2397 -80.8922 0.0
-65.5543 -85.4043 0.0
-64.3046 -74.2156 0.0
-85.3702 -89.0555 0.0
-74.6153 -85.7263 0.0
-82.8759 -78.0769 0.0
-68.9768 -34.8063 0.0
-74.1825 -44.7888 0.0
-62.9346 -44.3058 0.0
-66.4015 -65.7078 0.0
-77.3913 -68.1524 0.0
-74.0135 -57.4127 0.0
-90.9375 -49.1078 0.0
-79.6805 -49.2822 0.0
-85.158 -39.4462 0.0
-75.9428 -23.2968 0.0
-78.7909 -12.4047 0.0
-86.7997 -20.3172 0.0
-84.497 -4.7831 0.0
-74.3234 -9.6046 0.0
-75.2346 1.6168 0.0
-78.5582 5.3005 0.0
-87.6626 11.9232 0.0
-77.375 16.4965 0.0
-83.813 27.1763 0.0
-90.9363 35.8946 0.0
-79.8244 37.7044 0.0
-88.8698 52.0555 0.0
-90.8374 63.1406 0.0
-80.2537 59.3021 0.0
-67.1388 66.4421 0.0
-74.3727 57.8153 0.0
-78.2267 68.3935 0.0
-84.6302 74.4058 0.0
-87.6784 85.2436 0.0
-76.7685 82.4645 0.0
-68.8341 79.1863 0.0
-68.8341 90.4447 0.0
-59.0841 84.8155 0.0
