ply
format ascii 1.0
element vertex 50
property float x
property float y
property float z
end_header
-27.7025 21.8044 0.0
-22.0424 43.0958 0.0
-2.875 53.7628 0.0
13.7266 50.8244 0.0
2.875 71.5799 0.0
25.7801 82.6047 0.0
32.5538 64.2267 0.0
37.0381 48.7436 0.0
49.875 65.5017 0.0
49.8665 85.3272 0.0
68.3371 66.2762 0.0
67.1392 80.744 0.0
84.7584 82.4896 0.0
85.618 64.2907 0.0
80.852 48.2336 0.0
60.2348 36.6774 0.0
84.7452 29.5308 0.0
76.8002 14.9597 0.0
80.4291 -7.5923 0.0
83.439 -28.5963 0.0
78.2399 -43.4374 0.0
85.1171 -58.4884 0.0
67.8741 -65.0175 0.0
79.3752 -80.711 0.0
56.3695 -85.447 0.0
25.269 -14.0072 0.0
26.1734 -30.3302 0.0
10.3286 -29.1141 0.0
10.3794 -50.5182 0.0
-9.502 -42.3339 0.0
-16.8662 -74.1883 0.0
-33.4644 -40.4874 0.0
-25.125 -54.8987 0.0
-39.4231 -69.9226 0.0
-36.3884 -84.8978 0.0
-50.0085 -33.1351 0.0
-49.875 -50.6232 0.0
-61.6995 -80.1707 0.0
-68.698 -41.3003 0.0
-72.6021 -63.7576 0.0
-80.9538 -84.2862 0.0
-85.2587 -45.9454 0.0
-80.5111 -18.6729 0.0
-78.0184 -4.257 0.0
-81.1986 11.2401 0.0
-84.8579 33.5918 0.0
-86.6536 58.1661 0.0
-73.2461 64.217 0.0
-83.0257 80.7046 0.0
-65.5841 84.8155 0.0
